<svg width="64" height="9" viewBox="0 0 64 9" fill="none" xmlns="http://www.w3.org/2000/svg">
<path d="M16.9593 5.468C16.4183 5.5511 15.8765 5.47808 15.3355 5.468C15.0613 5.46297 14.7996 5.50451 14.5512 5.74498C14.2962 5.99174 14.0212 5.89353 13.764 5.73742C13.6814 5.68706 13.6298 5.49946 13.5576 5.38867C13.478 5.26781 13.3778 5.25775 13.2805 5.30811C13.2112 5.34462 13.1397 5.39747 13.0837 5.47175C12.9407 5.66186 12.7829 5.74876 12.6038 5.74498C12.5552 5.74372 12.5058 5.75756 12.4564 5.76637C12.1395 5.82806 11.8468 6.18435 11.5218 6.07356C11.1967 5.96403 10.8835 6.14658 10.5658 6.09873C10.3631 6.06852 10.1788 6.12897 9.99378 6.27627C9.68347 6.52178 9.37609 6.51926 9.08126 6.17681C8.97438 6.05217 8.85204 6.04839 8.72673 6.11134C8.61911 6.16422 8.59035 6.29138 8.67438 6.4626C8.71787 6.55199 8.73631 6.63383 8.67366 6.65019C8.55425 6.68167 8.42598 6.69805 8.30879 6.66028C8.16727 6.61495 8.03312 6.44499 7.89455 6.44247C7.75524 6.43995 7.61741 6.60361 7.47368 6.64515C7.30488 6.693 7.13093 6.69425 6.95919 6.70432C6.66067 6.72195 6.36878 6.7824 6.1108 7.06945C6.00244 7.19032 5.88746 7.23814 5.76068 7.17141C5.59115 7.08202 5.42234 7.06943 5.25281 7.17519C5.22996 7.18904 5.20638 7.20289 5.18279 7.21423C4.87616 7.3502 4.55185 7.2369 4.24743 7.51262C3.96881 7.76568 3.63785 7.84625 3.3467 8.06783C3.07029 8.27683 2.78577 8.39896 2.49093 8.42666C1.80028 8.49213 1.12953 8.76911 0.451408 8.95922C0.305464 8.99951 0.160993 9.03853 0.0261055 8.92648C-0.00411521 7.68133 -0.13384 7.64482 0.674011 7.22557C0.909143 7.10344 1.14207 6.96998 1.37572 6.8403C1.57474 6.72951 1.7332 6.55829 1.75163 6.15415C1.75531 6.07484 1.77079 5.959 1.80322 5.92627C2.04572 5.68957 2.21895 5.36348 2.31109 4.90898C2.32436 4.84477 2.38259 4.78561 2.42608 4.76547C2.54475 4.71385 2.6671 4.65718 2.78798 4.6534C3.2155 4.63703 3.61205 4.4268 3.99976 4.14227C4.33882 3.89299 4.68304 3.66257 5.01842 3.39692C5.42603 3.07461 5.84395 2.85934 6.298 2.84927C6.51913 2.84423 6.74025 2.79514 6.96064 2.75737C7.45228 2.67301 7.94099 2.62515 8.43189 2.80393C8.80044 2.93865 9.17413 2.8845 9.52573 2.67173C9.78813 2.51184 10.0491 2.45141 10.3218 2.45393C10.7663 2.4577 11.2056 2.39728 11.6405 2.21473C11.8284 2.13541 12.0341 2.10645 12.225 2.14674C12.4557 2.19458 12.6517 2.12912 12.8633 1.97175C13.0122 1.86096 13.2016 1.86471 13.3704 1.88738C13.7883 1.94403 14.2041 2.01329 14.6227 1.90628C14.647 1.89998 14.6721 1.89872 14.6964 1.90124C14.9898 1.94279 15.2846 2.03216 15.5772 2.01328C15.8691 1.99439 16.1551 1.80051 16.4559 1.88864C16.503 1.90248 16.5561 1.89873 16.6025 1.87858C17.1369 1.63937 17.6772 1.70106 18.2183 1.77912C18.6649 1.84333 19.102 1.68467 19.5376 1.56632C19.8067 1.4933 20.0713 1.43289 20.3433 1.42785C20.5644 1.42407 20.787 1.40267 21.0067 1.36112C21.2278 1.31957 21.446 1.28558 21.6693 1.32965C21.7902 1.35357 21.9148 1.32588 22.0379 1.31203C22.2339 1.29063 22.4329 1.21257 22.6246 1.24908C22.789 1.28056 22.9452 1.43792 23.1199 1.54871C23.4066 1.31202 23.7096 1.15967 24.0339 1.12693C24.1791 1.11308 24.3228 1.02497 24.4644 0.956986C24.6818 0.852488 24.8963 0.793323 25.1167 0.933072C25.1852 0.975878 25.2619 1.02119 25.3319 1.01111C25.8722 0.934315 26.4118 1.04889 26.9535 0.98342C27.5425 0.912916 28.1351 0.917937 28.7262 0.905347C29.3424 0.892757 29.952 0.788266 30.5542 0.565422C30.6021 0.547796 30.65 0.511295 30.6979 0.512554C30.9566 0.518849 31.1763 0.366522 31.3746 0.0845051C31.4549 -0.0300642 31.5729 -0.0338486 31.6421 0.108419C31.8154 0.459681 32.0387 0.579288 32.2937 0.61454C32.5893 0.654829 32.8841 0.693859 33.1768 0.584326C33.3728 0.511303 33.5659 0.533954 33.7635 0.572984C33.933 0.606977 34.1099 0.627126 34.2765 0.578024C34.4792 0.517592 34.6628 0.518839 34.8478 0.691322C34.9591 0.79582 35.0888 0.779449 35.2089 0.719017C35.3519 0.647254 35.4934 0.610763 35.6445 0.61454C36.7281 0.634685 37.8116 0.64851 38.8951 0.653546C39.1922 0.654805 39.487 0.661128 39.7737 0.808432C40.0619 0.956994 40.359 0.929272 40.6538 0.940603C40.7732 0.94438 40.7821 0.962012 40.9044 1.35608C41.1838 1.35608 41.4772 1.35608 41.7779 1.35608C41.8428 1.11813 41.6334 1.22012 41.6415 1.05519C42.0705 0.765621 42.2165 0.712719 42.4722 0.779446C42.5695 0.804627 42.6653 0.846186 42.7612 0.886474C43.0538 1.01237 43.3243 0.999784 43.6206 0.792049C43.959 0.556615 44.3297 0.512565 44.7093 0.618321C45.094 0.725336 45.4847 0.855014 45.8835 0.712746C45.9963 0.672458 46.1274 0.740428 46.2461 0.790789C47.0171 1.11561 47.7985 1.23647 48.5916 1.16597C49.0346 1.12694 49.4783 1.12192 49.9117 1.34477C50.079 1.43038 50.2552 1.41526 50.424 1.33469C50.8618 1.12695 51.3011 1.15338 51.7419 1.29313C51.7905 1.30824 51.8392 1.32965 51.8878 1.33091C52.207 1.33846 52.5313 1.28181 52.8438 1.36364C53.1571 1.44548 53.4578 1.66329 53.7822 1.68343C54.0799 1.70232 54.3674 1.80933 54.6512 1.96419C54.9593 2.13164 55.274 2.19585 55.5991 2.15934C55.9684 2.11653 56.3384 2.13163 56.7018 2.2739C56.8993 2.3507 57.0902 2.30413 57.2855 2.22481C57.7035 2.0561 58.117 2.10392 58.5084 2.41867C58.6956 2.56975 58.8828 2.60879 59.0826 2.55339C59.2285 2.5131 59.3737 2.46276 59.5204 2.43883C59.7931 2.39225 60.0644 2.40107 60.3128 2.63399C60.4956 2.80647 60.6843 2.82032 60.8855 2.75737C61.0057 2.7196 61.131 2.73217 61.2526 2.70825C61.4287 2.673 61.3955 3.01922 61.481 3.08091C61.6653 3.2131 61.8703 3.17156 62.0589 3.05573C62.4201 2.83667 62.7879 2.89835 63.1565 2.95375C63.4572 2.99907 63.6695 3.27859 63.7528 3.76331C63.8022 4.05162 63.8663 4.30846 63.9651 4.55271C64.0351 4.72645 64.0012 4.90772 63.8515 5.06258C63.7358 5.18218 63.6673 5.31691 63.6533 5.55235C63.6459 5.66943 63.6142 5.7991 63.57 5.88975C63.5051 6.02321 63.4056 6.08365 63.3039 6.05721C63.2331 6.03958 63.1587 5.99425 63.1004 5.92501C62.872 5.6518 62.6213 5.51459 62.3442 5.468C62.0029 5.41135 61.6698 5.26278 61.3174 5.36602C61.1567 5.41386 60.9799 5.2955 60.8103 5.25395C60.7226 5.23255 60.6762 5.30685 60.6813 5.46296C60.6924 5.7966 60.6614 5.90487 60.5479 5.90361C60.4005 5.90361 60.2501 5.92124 60.1071 5.87466C59.6192 5.71225 59.1275 5.70719 58.6344 5.72229C58.1155 5.7374 57.6017 5.72358 57.0939 5.49318C56.9074 5.40882 56.7025 5.38488 56.5094 5.4088C56.2109 5.44531 55.9197 5.42771 55.6293 5.30811C55.5342 5.26908 55.4355 5.25018 55.3374 5.23508C55.1126 5.19982 54.8959 5.23633 54.6969 5.44658C54.615 5.53219 54.5222 5.58759 54.4183 5.67069C54.0298 5.37986 53.6111 5.33706 53.1976 5.24138C52.905 5.17339 52.6131 5.1054 52.3197 5.04875C52.1738 5.02105 52.0242 4.99208 51.8782 5.00971C51.2259 5.09029 51.2259 5.09784 50.7372 4.85107C50.6665 4.81582 50.5994 4.76041 50.5309 4.71383L50.536 4.70504C50.4203 4.76673 50.3038 4.8259 50.1881 4.88885C50.1107 4.9304 50.0849 5.03111 50.0606 5.15952C50.0149 5.40377 49.9692 5.42392 49.8593 5.32068C49.7532 5.21996 49.6507 5.10037 49.5387 5.02609C49.4473 4.96566 49.3131 4.94801 49.2638 5.09279C49.0994 5.57373 48.8377 5.41386 48.6033 5.43401C48.4788 5.44408 48.481 5.43149 48.4419 5.05631C48.4338 4.98077 48.4058 4.8964 48.3712 4.84855C48.335 4.79945 48.2805 4.77051 48.2341 4.76925C48.038 4.76044 47.839 4.73023 47.6466 4.77429C47.4026 4.83095 47.1646 4.91276 46.9147 4.84855C46.7967 4.81834 46.6714 4.88256 46.5491 4.89515C46.4267 4.90648 46.2955 4.95685 46.1835 4.90145C45.865 4.74282 45.5488 4.8108 45.2311 4.86242C44.9356 4.91152 44.6444 4.90647 44.3511 4.78686C44.1366 4.69999 43.911 4.69621 43.6936 4.62571C43.4695 4.55269 43.2587 4.55018 43.0471 4.73147C42.9403 4.82338 42.8113 4.89262 42.6941 4.88507C42.0565 4.84226 41.4152 5.09533 40.7806 4.79695C40.6641 4.74281 40.5351 4.73524 40.4135 4.75287C40.0914 4.80071 39.7737 4.76674 39.4597 4.64839C39.2312 4.56152 39.0219 4.70628 38.8059 4.77678C38.7064 4.80952 38.6268 4.67229 38.6246 4.46959C38.6239 4.42805 38.6305 4.3865 38.6364 4.34495C38.6548 4.21527 38.6556 4.08559 38.5752 4.02138C38.4809 3.9471 38.3836 3.96347 38.2944 4.06042C38.2745 4.08182 38.2524 4.11581 38.245 4.15232C38.1706 4.51365 38.0128 4.64965 37.799 4.71134C37.4091 4.82339 37.0251 4.95305 36.6286 4.7856C36.4421 4.70755 36.2357 4.87751 36.0551 4.65592C35.991 4.5766 35.9121 4.60179 35.8524 4.68992C35.7102 4.89765 35.5406 4.92536 35.3659 4.92159C34.7505 4.90648 34.135 4.88758 33.5202 4.87499C33.2372 4.86869 33.0618 4.62193 32.9682 4.18254C32.9512 4.10322 32.9409 4.02139 32.9276 3.93956C32.9468 3.93578 32.9674 3.93706 32.9851 3.92572C32.9984 3.91691 33.0087 3.89297 33.0205 3.87535C32.9918 3.90179 32.963 3.92824 32.9342 3.95468C32.8841 3.95594 32.8348 3.95717 32.7846 3.95843L32.792 3.94586C32.7389 4.29334 32.6225 4.53507 32.4212 4.67231C32.0637 4.91655 31.7092 4.99713 31.3488 4.70504C31.2073 4.59047 31.065 4.59046 30.9176 4.66222C30.8232 4.70755 30.7267 4.74406 30.6316 4.78938C30.4341 4.88633 30.2417 4.8813 30.0596 4.70504C29.8311 4.48346 29.5945 4.46458 29.3461 4.58544C29.2761 4.61943 29.2009 4.6232 29.1287 4.63831C29.0564 4.65342 29.0107 4.52248 29.0409 4.38021C29.066 4.26312 29.0992 4.15107 29.1206 4.03398C29.1257 4.00502 29.1088 3.93957 29.0918 3.92572C29.0498 3.89173 28.9989 3.84766 28.9569 3.85899C28.8029 3.90432 28.7085 4.11707 28.5957 4.27696C28.4785 4.44189 28.3518 4.53884 28.197 4.56654C27.9781 4.60557 27.7584 4.66348 27.5447 4.75413C27.2963 4.85863 27.0515 4.86116 26.8186 4.7063C26.6292 4.5804 26.4589 4.46709 26.2614 4.67231C26.2172 4.71889 26.1235 4.62823 26.0528 4.60179C26.0049 4.58417 25.9533 4.54135 25.9098 4.55772C25.7439 4.61815 25.5766 4.77175 25.4174 4.74783C25.2574 4.72265 25.1167 4.5036 24.9346 4.48598C24.5373 4.4482 24.1526 4.43812 23.7914 4.81708C23.6757 4.9392 23.5091 4.93418 23.3639 4.95684C23.2673 4.97195 23.1656 4.95305 23.0705 4.91276C22.7948 4.79694 22.5369 4.87375 22.2789 5.05379C21.8514 5.35091 21.4084 5.3081 20.9713 5.13939C20.7583 5.0563 20.5585 4.87878 20.3344 4.73147C20.2062 4.78687 20.0654 4.86365 19.9217 4.90394C19.7765 4.94549 19.6283 4.95305 19.4809 4.96941C19.3276 4.98704 19.2045 5.10916 19.0792 5.25269C18.9406 5.41258 18.8883 5.39244 18.7917 5.10161C18.7084 4.85233 18.6015 4.72517 18.4416 4.72391C18.2964 4.72391 18.1519 4.74658 17.9713 4.76169C18.0561 4.91529 18.1136 5.01853 18.1843 5.14695C17.9485 5.27285 17.6986 5.29675 17.5055 5.59513C17.448 5.68452 17.3161 5.67069 17.2239 5.64677C17.1303 5.62159 17.0433 5.52339 16.9541 5.45792C16.9748 5.43652 16.9954 5.41511 17.0161 5.39245C16.9962 5.41511 16.9777 5.44156 16.9593 5.468ZM14.4583 5.02735C14.8284 5.2502 15.0414 5.19856 15.2515 5.20108C15.3185 5.20234 15.3856 5.15449 15.4578 5.12679C15.4372 5.07769 15.4276 5.02735 15.4129 5.02231C15.1549 4.94425 14.8977 4.94804 14.4583 5.02735ZM29.9667 3.97481C29.9572 3.89424 29.9579 3.83508 29.949 3.8313C29.9041 3.8099 29.8569 3.7973 29.8105 3.79604C29.7987 3.79604 29.7862 3.84513 29.7744 3.87157C29.8348 3.9043 29.8945 3.93578 29.9667 3.97481ZM60.7233 3.22571C60.7056 3.24837 60.6872 3.27104 60.6695 3.2937C60.7108 3.31007 60.7521 3.32516 60.7934 3.34153C60.7926 3.3088 60.7993 3.25718 60.7904 3.2471C60.7727 3.22822 60.7462 3.23201 60.7233 3.22571Z" fill="#0C7236"/>
<path d="M18.107 5.57878C18.093 5.5964 18.0789 5.62787 18.0657 5.62787C18.0517 5.62787 18.0384 5.59514 18.0251 5.57752C18.0391 5.55989 18.0531 5.52717 18.0664 5.52843C18.0804 5.52717 18.0937 5.55989 18.107 5.57878Z" fill="#0C7236"/>
</svg>
