<svg width="282" height="12" viewBox="0 0 282 12" fill="none" xmlns="http://www.w3.org/2000/svg">
<path d="M74.7269 7.29067C72.343 7.40146 69.9558 7.3041 67.572 7.29067C66.3638 7.28396 65.2108 7.33934 64.1163 7.65997C62.9926 7.98899 61.7811 7.85804 60.6476 7.64989C60.2839 7.58274 60.0565 7.33262 59.7382 7.18489C59.3874 7.02374 58.9458 7.01033 58.5171 7.07748C58.2118 7.12616 57.8967 7.19663 57.6499 7.29567C57.0198 7.54915 56.3248 7.66501 55.5356 7.65997C55.3212 7.65829 55.1036 7.67674 54.886 7.6885C53.4894 7.77075 52.2001 8.2458 50.7678 8.09808C49.3355 7.95204 47.9552 8.19544 46.5554 8.13165C45.6623 8.09136 44.8503 8.17196 44.0351 8.36837C42.6678 8.69571 41.3134 8.69234 40.0143 8.23574C39.5434 8.06956 39.0043 8.06452 38.4522 8.14845C37.978 8.21895 37.8512 8.38851 38.2215 8.61681C38.4131 8.73599 38.4944 8.8451 38.2183 8.86693C37.6922 8.90889 37.127 8.93073 36.6106 8.88037C35.987 8.81994 35.396 8.59332 34.7854 8.58996C34.1715 8.5866 33.5642 8.80481 32.9309 8.8602C32.1871 8.92399 31.4207 8.92567 30.6639 8.9391C29.3486 8.9626 28.0624 9.0432 26.9257 9.42594C26.4483 9.58709 25.9416 9.65085 25.383 9.56188C24.636 9.44269 23.8922 9.42591 23.1452 9.56692C23.0445 9.58538 22.9406 9.60386 22.8367 9.61897C21.4856 9.80026 20.0566 9.6492 18.7152 10.0168C17.4876 10.3542 16.0293 10.4617 14.7464 10.7571C13.5285 11.0358 12.2748 11.1986 10.9757 11.2355C7.93248 11.3228 4.977 11.6921 1.98902 11.9456C1.34595 11.9993 0.709376 12.0514 0.115027 11.902C-0.0181327 10.2418 -0.589734 10.1931 2.96986 9.63409C4.00591 9.47126 5.03223 9.29331 6.06178 9.12041C6.93869 8.97268 7.63692 8.74439 7.71811 8.20554C7.73435 8.09978 7.80254 7.94534 7.94545 7.90169C9.01397 7.5861 9.77725 7.15131 10.1832 6.54531C10.2417 6.4597 10.4983 6.38082 10.6899 6.35396C11.2128 6.28513 11.7519 6.20957 12.2845 6.20454C14.1683 6.18271 15.9156 5.90241 17.6239 5.52303C19.1179 5.19065 20.6347 4.88342 22.1124 4.52922C23.9085 4.09949 25.7499 3.81246 27.7506 3.79903C28.7249 3.79231 29.6992 3.72685 30.6703 3.67649C32.8366 3.56402 34.99 3.50021 37.153 3.73858C38.7769 3.9182 40.4235 3.846 41.9727 3.56231C43.1289 3.34912 44.2787 3.26854 45.4804 3.2719C47.4388 3.27694 49.3745 3.19638 51.2907 2.95297C52.1189 2.84721 53.025 2.8086 53.8662 2.86232C54.8828 2.92611 55.7467 2.83883 56.6788 2.629C57.3349 2.48128 58.1696 2.48628 58.9133 2.5165C60.7548 2.59204 62.5866 2.68439 64.4314 2.54171C64.5385 2.53331 64.649 2.53163 64.7561 2.53498C66.0488 2.59038 67.3479 2.70955 68.6372 2.68437C69.9234 2.65919 71.1835 2.40067 72.5086 2.51818C72.7165 2.53665 72.9503 2.53164 73.1549 2.50478C75.5096 2.18583 77.8903 2.26808 80.2742 2.37216C82.2423 2.45777 84.1683 2.24623 86.0877 2.08843C87.2732 1.99107 88.4391 1.91052 89.6375 1.9038C90.6119 1.89877 91.5927 1.87022 92.5606 1.81483C93.5349 1.75943 94.4963 1.71411 95.4804 1.77286C96.0131 1.80476 96.5619 1.76784 97.1043 1.74938C97.9682 1.72084 98.8451 1.61676 99.6896 1.66544C100.414 1.70741 101.102 1.91722 101.872 2.06495C103.135 1.74936 104.47 1.54622 105.899 1.50258C106.539 1.48411 107.172 1.36663 107.796 1.27598C108.754 1.13665 109.699 1.05776 110.67 1.2441C110.972 1.30117 111.31 1.36158 111.619 1.34815C113.999 1.24575 116.377 1.39852 118.764 1.31123C121.359 1.21722 123.97 1.22392 126.575 1.20713C129.29 1.19034 131.976 1.05102 134.629 0.753896C134.841 0.730395 135.052 0.681726 135.263 0.683405C136.403 0.691798 137.371 0.488696 138.244 0.112673C138.598 -0.0400856 139.118 -0.0451315 139.423 0.144558C140.186 0.612907 141.17 0.772384 142.294 0.819387C143.597 0.873105 144.896 0.925145 146.185 0.779101C147.049 0.681738 147.9 0.711939 148.77 0.763978C149.517 0.809302 150.297 0.836167 151.031 0.770699C151.924 0.690123 152.733 0.691785 153.548 0.921763C154.038 1.06109 154.61 1.03927 155.139 0.958689C155.769 0.863005 156.393 0.814351 157.059 0.819387C161.833 0.846246 166.607 0.86468 171.382 0.871395C172.69 0.873074 173.99 0.881505 175.253 1.07791C176.523 1.27599 177.832 1.23903 179.131 1.25414C179.657 1.25917 179.696 1.28268 180.235 1.80811C181.466 1.80811 182.759 1.80811 184.084 1.80811C184.37 1.49084 183.447 1.62683 183.483 1.40692C185.373 1.02083 186.016 0.950292 187.143 1.03926C187.572 1.07284 187.994 1.12825 188.416 1.18197C189.706 1.34983 190.898 1.33305 192.203 1.05607C193.694 0.742154 195.328 0.68342 197 0.824428C198.696 0.967115 200.417 1.14002 202.174 0.950328C202.671 0.896611 203.249 0.987238 203.772 1.05438C207.169 1.48748 210.612 1.64863 214.107 1.55463C216.059 1.50259 218.014 1.4959 219.923 1.79302C220.661 1.90717 221.437 1.88702 222.181 1.77958C224.11 1.5026 226.045 1.53784 227.988 1.72417C228.202 1.74432 228.416 1.77286 228.631 1.77454C230.037 1.78461 231.466 1.70907 232.843 1.81819C234.223 1.9273 235.549 2.21772 236.978 2.24458C238.29 2.26976 239.556 2.41244 240.807 2.61892C242.164 2.84218 243.551 2.9278 244.983 2.87912C246.611 2.82204 248.241 2.84217 249.842 3.03186C250.713 3.13426 251.554 3.07217 252.414 2.96641C254.256 2.74147 256.078 2.80523 257.803 3.22489C258.628 3.42634 259.452 3.47839 260.332 3.40452C260.976 3.35081 261.615 3.28367 262.262 3.25178C263.464 3.18967 264.659 3.20143 265.753 3.51198C266.559 3.74196 267.39 3.76042 268.277 3.67649C268.806 3.62613 269.358 3.64289 269.894 3.611C270.67 3.56399 270.524 4.02562 270.901 4.10788C271.713 4.28414 272.616 4.22875 273.447 4.07431C275.039 3.78222 276.659 3.86447 278.283 3.93833C279.608 3.99876 280.544 4.37146 280.911 5.01774C281.128 5.40216 281.411 5.74461 281.846 6.07027C282.155 6.30193 282.005 6.54363 281.346 6.7501C280.836 6.90958 280.534 7.08922 280.472 7.40313C280.44 7.55925 280.3 7.73214 280.105 7.853C279.819 8.03094 279.381 8.11153 278.933 8.07628C278.621 8.05278 278.293 7.99234 278.036 7.90001C277.03 7.53574 275.925 7.35278 274.704 7.29067C273.2 7.21513 271.732 7.01704 270.18 7.15469C269.472 7.21848 268.692 7.06066 267.945 7.00526C267.559 6.97673 267.354 7.0758 267.377 7.28395C267.426 7.7288 267.289 7.87316 266.789 7.87149C266.14 7.87149 265.477 7.89499 264.847 7.83288C262.697 7.61633 260.531 7.60958 258.358 7.62973C256.071 7.64987 253.808 7.63143 251.57 7.32424C250.748 7.21177 249.845 7.17984 248.994 7.21174C247.679 7.26042 246.396 7.23695 245.117 7.07748C244.698 7.02544 244.262 7.00025 243.83 6.9801C242.84 6.9331 241.885 6.98177 241.008 7.26211C240.648 7.37626 240.238 7.45012 239.78 7.56091C238.069 7.17314 236.224 7.11608 234.402 6.9885C233.113 6.89785 231.826 6.8072 230.534 6.73166C229.891 6.69473 229.232 6.65611 228.588 6.67961C225.714 6.78705 225.714 6.79712 223.561 6.4681C223.249 6.4211 222.954 6.34722 222.652 6.28511L222.674 6.27339C222.164 6.35564 221.651 6.43453 221.141 6.51847C220.8 6.57386 220.687 6.70814 220.579 6.87936C220.378 7.20503 220.177 7.23189 219.693 7.09424C219.225 6.95995 218.774 6.8005 218.28 6.70146C217.877 6.62088 217.286 6.59734 217.068 6.79039C216.344 7.43164 215.191 7.21849 214.158 7.24534C213.61 7.25877 213.619 7.24199 213.447 6.74174C213.411 6.64102 213.288 6.52853 213.135 6.46474C212.976 6.39927 212.736 6.36068 212.531 6.359C211.667 6.34725 210.79 6.30697 209.943 6.36572C208.868 6.44126 207.819 6.55035 206.718 6.46474C206.198 6.42445 205.646 6.51008 205.107 6.52687C204.568 6.54198 203.99 6.60913 203.496 6.53527C202.093 6.32376 200.7 6.4144 199.3 6.48322C197.997 6.54869 196.714 6.54196 195.422 6.38248C194.477 6.26666 193.483 6.26162 192.525 6.16761C191.537 6.07025 190.609 6.0669 189.676 6.30863C189.206 6.43118 188.637 6.5235 188.121 6.51343C185.311 6.45635 182.486 6.79377 179.689 6.39593C179.176 6.32374 178.608 6.31366 178.072 6.33716C176.653 6.40095 175.253 6.35565 173.869 6.19786C172.863 6.08203 171.94 6.27504 170.989 6.36904C170.55 6.41269 170.199 6.22972 170.19 5.95946C170.186 5.90406 170.216 5.84867 170.242 5.79327C170.323 5.62037 170.326 5.44745 169.972 5.36184C169.556 5.2628 169.128 5.28463 168.735 5.41389C168.647 5.44243 168.55 5.48775 168.517 5.53643C168.189 6.01821 167.494 6.19953 166.552 6.28179C164.834 6.43119 163.142 6.60407 161.395 6.3808C160.573 6.27673 159.664 6.50334 158.868 6.2079C158.585 6.10214 158.238 6.13572 157.975 6.25322C157.348 6.5302 156.601 6.56715 155.831 6.56211C153.119 6.54197 150.407 6.51677 147.699 6.49998C146.451 6.49159 145.679 6.16257 145.266 5.57671C145.191 5.47096 145.146 5.36186 145.087 5.25274C145.172 5.24771 145.263 5.24941 145.341 5.2343C145.399 5.22255 145.445 5.19063 145.497 5.16713C145.37 5.20238 145.243 5.23765 145.117 5.27291C144.896 5.27458 144.678 5.27623 144.457 5.27791L144.49 5.26114C144.256 5.72446 143.743 6.04676 142.856 6.22974C141.281 6.5554 139.719 6.66284 138.131 6.27339C137.507 6.12063 136.88 6.12061 136.231 6.2163C135.815 6.27673 135.389 6.32541 134.97 6.38585C134.1 6.5151 133.252 6.5084 132.45 6.27339C131.443 5.97794 130.401 5.95277 129.306 6.11392C128.998 6.15925 128.666 6.16427 128.348 6.18441C128.03 6.20456 127.828 6.02997 127.962 5.84028C128.072 5.68416 128.218 5.53476 128.312 5.37864C128.335 5.34003 128.26 5.25276 128.186 5.2343C128.001 5.18898 127.776 5.13022 127.591 5.14533C126.913 5.20576 126.497 5.48942 126 5.70261C125.484 5.92252 124.925 6.05179 124.243 6.08872C123.278 6.14076 122.311 6.21797 121.369 6.33884C120.274 6.47817 119.196 6.48154 118.17 6.27507C117.335 6.1072 116.585 5.95612 115.714 6.22974C115.519 6.29185 115.107 6.17098 114.795 6.13572C114.584 6.11222 114.357 6.05513 114.165 6.07695C113.434 6.15753 112.697 6.36233 111.995 6.33044C111.291 6.29686 110.67 6.0048 109.868 5.9813C108.118 5.93094 106.422 5.91749 104.831 6.42277C104.321 6.5856 103.587 6.57891 102.947 6.60912C102.522 6.62927 102.073 6.60407 101.654 6.55035C100.44 6.39591 99.3031 6.49833 98.1664 6.73838C96.2826 7.13455 94.3306 7.07746 92.4047 6.85252C91.4661 6.74173 90.5859 6.50504 89.5986 6.30863C89.0335 6.38249 88.4131 6.48487 87.7798 6.53859C87.14 6.59399 86.4872 6.60406 85.8376 6.62588C85.1621 6.64938 84.6197 6.81222 84.0676 7.00358C83.457 7.21678 83.2263 7.18993 82.8009 6.80215C82.4339 6.46978 81.963 6.30023 81.2582 6.29855C80.6184 6.29855 79.9818 6.32878 79.1861 6.34892C79.5596 6.55372 79.8129 6.69138 80.1247 6.8626C79.0854 7.03047 77.9844 7.06233 77.1335 7.46018C76.8801 7.57936 76.2989 7.56092 75.8929 7.52903C75.4804 7.49546 75.0971 7.36452 74.7041 7.27723C74.7951 7.24869 74.886 7.22015 74.977 7.18993C74.8893 7.22015 74.8081 7.25542 74.7269 7.29067ZM63.7071 6.70314C65.3375 7.00026 66.2761 6.93142 67.2017 6.93477C67.4973 6.93645 67.7928 6.87265 68.1111 6.83572C68.0201 6.77025 67.978 6.70313 67.913 6.69642C66.7763 6.59234 65.6428 6.59738 63.7071 6.70314ZM132.041 5.29975C131.999 5.19231 132.002 5.11344 131.963 5.1084C131.765 5.07986 131.557 5.06307 131.352 5.06139C131.3 5.06139 131.245 5.12683 131.193 5.16209C131.46 5.20573 131.723 5.24771 132.041 5.29975ZM267.562 4.30095C267.484 4.33116 267.403 4.36139 267.325 4.3916C267.507 4.41343 267.689 4.43355 267.871 4.45537C267.868 4.41173 267.897 4.3429 267.858 4.32947C267.78 4.30429 267.663 4.30934 267.562 4.30095Z" fill="white"/>
<path d="M79.7838 7.43837C79.7221 7.46187 79.6603 7.50382 79.6019 7.50382C79.5402 7.50382 79.4817 7.46019 79.4232 7.43669C79.4849 7.41319 79.5467 7.36956 79.6051 7.37124C79.6668 7.36956 79.7253 7.41319 79.7838 7.43837Z" fill="white"/>
</svg>
